<?xml version="1.0" encoding="UTF-8"?>
<svg width="539px" height="180px" viewBox="0 0 539 180" version="1.1" xmlns="http://www.w3.org/2000/svg" xmlns:xlink="http://www.w3.org/1999/xlink">
    <title>Scarica</title>
    <g id="Scarica" stroke="none" fill="none" fill-rule="evenodd" stroke-width="1">
        <g id="livetype" transform="translate(0, -0.0006)">
            <g id="Group" fill-rule="nonzero">
                <g id="Path">
                    <path d="M495.606465,0 L42.90606,0 C41.25591,0 39.62556,0 37.979775,0.009585 C36.6021,0.018585 35.235405,0.04473 33.8445,0.066735 C30.8228116,0.102293116 27.8082291,0.36812817 24.82695,0.86193 C21.8498584,1.36648183 18.9660263,2.31770583 16.27299,3.68343 C13.5832473,5.0607077 11.1255526,6.85033888 8.989065,8.9874 C6.84136124,11.1184515 5.05108432,13.5816587 3.687075,16.282305 C2.31930109,18.977576 1.37088224,21.8658073 0.874575,24.847245 C0.373549235,27.8249171 0.103942713,30.8369274 0.068175,33.856245 C0.026415,35.235945 0.022005,36.620235 0,38.000115 L0,142.014285 C0.022005,143.411535 0.026415,144.765135 0.068175,146.162835 C0.103953681,149.182003 0.373560208,152.193863 0.874575,155.171385 C1.36951179,158.154566 2.31798671,161.044455 3.687075,163.740735 C5.05046498,166.432648 6.84099366,168.885883 8.989065,171.005085 C11.1174517,173.151648 13.5767351,174.942497 16.27299,176.309235 C18.9660059,177.678614 21.849527,178.6355 24.82695,179.147835 C27.8087359,179.637681 30.8230083,179.903624 33.8445,179.943435 C35.235405,179.974035 36.6021,179.991585 37.979775,179.991585 C39.625515,180.000585 41.256,180.000585 42.90606,180.000585 L495.606465,180.000585 C497.223765,180.000585 498.867165,180.000585 500.484465,179.991585 C501.855615,179.991585 503.261865,179.974035 504.633015,179.943435 C507.648794,179.905742 510.657392,179.639782 513.633015,179.147835 C516.620043,178.631894 519.513902,177.675261 522.219915,176.309235 C524.913738,174.941706 527.370751,173.150906 529.497315,171.005085 C531.639844,168.877583 533.434196,166.426143 534.814515,163.740735 C536.17333,161.042493 537.112776,158.152835 537.600465,155.171385 C538.102282,152.193454 538.381455,149.182264 538.435665,146.162835 C538.453215,144.765135 538.453215,143.411535 538.453215,142.014285 C538.488315,140.379435 538.488315,138.753585 538.488315,137.092185 L538.488315,42.91317 C538.488315,41.265225 538.488315,39.630465 538.453215,38.000115 C538.453215,36.620235 538.453215,35.235945 538.435665,33.856065 C538.381466,30.836486 538.102293,27.8251455 537.600465,24.847065 C537.111417,21.8673522 536.172026,18.9793497 534.814515,16.282125 C532.036774,10.8689674 527.63208,6.46269929 522.219915,3.683025 C519.513894,2.32063821 516.619726,1.36966684 513.633015,0.861525 C510.657907,0.365547524 507.648996,0.099619942 504.633015,0.066105 C503.261865,0.044145 501.855615,0.017775 500.484465,0.009 C498.867165,0 497.223765,0 495.606465,0 L495.606465,0 Z" fill="#A6A6A6"></path>
                    <path d="M38.001735,176.063085 C36.630675,176.063085 35.292735,176.045535 33.93243,176.014935 C31.114448,175.978218 28.3030523,175.732898 25.5213,175.280985 C22.9274564,174.834262 20.4147191,174.003275 18.06597,172.815435 C15.7387577,171.637437 13.6161529,170.092813 11.77947,168.240735 C9.91620147,166.410474 8.3649453,164.287683 7.187175,161.956485 C5.99642667,159.610136 5.17235797,157.095133 4.743675,154.499085 C4.28073461,151.709602 4.03026468,148.888995 3.994425,146.061585 C3.965895,145.112535 3.928545,141.952635 3.928545,141.952635 L3.928545,38.000115 C3.928545,38.000115 3.968325,34.88877 3.99465,33.974685 C4.02896622,31.1517542 4.27797966,28.3355239 4.739535,25.55037 C5.16900926,22.9472104 5.99371592,20.4249549 7.185105,18.07092 C8.35854671,15.7413323 9.90119062,13.6169563 11.753235,11.780145 C13.6031977,9.92588139 15.7325923,8.37330353 18.063765,7.17903 C20.407116,5.99500621 22.9151045,5.16988145 25.503705,4.7313 C28.294593,4.27484762 31.1157488,4.02806738 33.9435,3.99303 L38.00394,3.938085 L500.462415,3.938085 L504.571365,3.995235 C507.373395,4.02853139 510.168923,4.27311003 512.934165,4.72689 C515.548971,5.17097281 518.083097,6.0018549 520.453215,7.192215 C525.123398,9.59902222 528.923437,13.4068183 531.320715,18.0819 C532.493088,20.419684 533.305074,22.9213654 533.729115,25.50204 C534.196166,28.3100462 534.457561,31.1484075 534.511215,33.994485 C534.524265,35.268885 534.524265,36.637785 534.524265,38.000115 C534.559815,39.687615 534.559815,41.2938 534.559815,42.91317 L534.559815,137.092185 C534.559815,138.727035 534.559815,140.322285 534.524265,141.930585 C534.524265,143.393985 534.524265,144.734535 534.506715,146.114235 C534.454223,148.909526 534.197186,151.697224 533.737665,154.454985 C533.317769,157.06976 532.498187,159.604394 531.307665,161.969985 C530.121569,164.27588 528.579221,166.380283 526.737465,168.205635 C524.89913,170.067666 522.772779,171.621327 520.440165,172.806885 C518.076612,174.003857 515.546216,174.837916 512.934165,175.280985 C510.152623,175.735309 507.340958,175.980646 504.522765,176.014935 C503.204715,176.045535 501.824565,176.063085 500.484465,176.063085 L495.606465,176.072085 L38.001735,176.063085 Z" fill="#000000"></path>
                </g>
                <g id="_Group_" transform="translate(44.8721, 39.2418)" fill="#FFFFFF">
                    <g id="_Group_2">
                        <path d="M66.5879065,52.111845 C66.686263,44.477726 70.6884997,37.4261225 77.1924265,33.427575 C73.0707533,27.5410925 66.4147107,23.9427376 59.2322065,23.718015 C51.6756265,22.924845 44.3498515,28.23975 40.4991565,28.23975 C36.5739415,28.23975 30.6451915,23.796765 24.2609065,23.92812 C15.8608522,24.1995079 8.2195638,28.8596497 4.13276652,36.203535 C-4.57023348,51.271425 1.92142152,73.41615 10.2581665,85.595895 C14.4292165,91.55997 19.3039765,98.221995 25.6825015,97.985745 C31.9242715,97.72686 34.2554515,94.005585 41.7898015,94.005585 C49.2542215,94.005585 51.4413565,97.985745 57.9493015,97.835535 C64.6470115,97.726815 68.8668865,91.844955 72.8915965,85.824405 C75.8884891,81.5747837 78.1945931,76.8780268 79.7244865,71.90811 C71.7696411,68.5436007 66.5971911,60.7489395 66.5879065,52.111845 L66.5879065,52.111845 Z" id="_Path_"></path>
                        <path d="M54.2955715,15.70779 C57.9474412,11.3238536 59.7465788,5.68904604 59.3109115,0 C53.7316667,0.585992193 48.5780074,3.25250854 44.8768015,7.468245 C41.2220308,11.6276356 39.3705324,17.0692321 39.7301065,22.5945 C45.3841623,22.6527154 50.7525689,20.1144745 54.2955715,15.70779 L54.2955715,15.70779 Z" id="_Path_2"></path>
                    </g>
                    <g id="Group" transform="translate(110.0507, 41.1785)">
                        <path d="M35.4375,41.708745 L14.1372,41.708745 L9.02196,56.81277 L0,56.81277 L20.1753,0.93177 L29.5488,0.93177 L49.7241,56.81277 L40.548285,56.81277 L35.4375,41.708745 Z M16.343235,34.73901 L33.227235,34.73901 L24.90399,10.226295 L24.67107,10.226295 L16.343235,34.73901 Z" id="Shape"></path>
                        <path d="M93.29589,36.444105 C93.29589,49.104765 86.51952,57.23901 76.29345,57.23901 C71.0076837,57.5155108 66.0287808,54.7469581 63.474615,50.11101 L63.281115,50.11101 L63.281115,70.29072 L54.918315,70.29072 L54.918315,16.07103 L63.013185,16.07103 L63.013185,22.8474 L63.166995,22.8474 C65.8346324,18.2405156 70.8189042,15.4731548 76.13964,15.644745 C86.479785,15.64479 93.29589,23.81859 93.29589,36.444105 Z M84.70017,36.444105 C84.70017,28.195605 80.437455,22.7727 73.93356,22.7727 C67.54392,22.7727 63.24606,28.309815 63.24606,36.444105 C63.24606,44.653095 67.54392,50.150655 73.93356,50.150655 C80.4375,50.150655 84.70017,44.76735 84.70017,36.444105 Z" id="Shape"></path>
                        <path d="M138.13767,36.444105 C138.13767,49.104765 131.3613,57.23901 121.13523,57.23901 C115.849464,57.5155108 110.870561,54.7469581 108.316395,50.11101 L108.122895,50.11101 L108.122895,70.29072 L99.760095,70.29072 L99.760095,16.07103 L107.854785,16.07103 L107.854785,22.8474 L108.008595,22.8474 C110.676252,18.2405184 115.660543,15.4731738 120.981285,15.64479 C131.321745,15.64479 138.13767,23.81859 138.13767,36.444105 Z M129.541995,36.444105 C129.541995,28.195605 125.279235,22.7727 118.77534,22.7727 C112.3857,22.7727 108.08784,28.309815 108.08784,36.444105 C108.08784,44.653095 112.3857,50.150655 118.77534,50.150655 C125.27928,50.150655 129.541995,44.76735 129.541995,36.444105 L129.541995,36.444105 Z" id="Shape"></path>
                        <path d="M167.7744,41.242905 C168.39405,46.78443 173.7774,50.422905 181.133775,50.422905 C188.18262,50.422905 193.253895,46.78425 193.253895,41.78763 C193.253895,37.450215 190.19529,34.85313 182.953125,33.07329 L175.71096,31.32864 C165.449745,28.85013 160.686045,24.051285 160.686045,16.26417 C160.686045,6.62256 169.0884,0 181.01952,0 C192.82752,0 200.922345,6.62256 201.19482,16.26417 L192.75282,16.26417 C192.24747,10.6875 187.63758,7.32132 180.900765,7.32132 C174.16395,7.32132 169.554105,10.7271 169.554105,15.68412 C169.554105,19.634805 172.498455,21.959505 179.701065,23.73912 L185.857785,25.25085 C197.32311,27.96228 202.08681,32.56785 202.08681,40.74156 C202.08681,51.19614 193.759155,57.744 180.514035,57.744 C168.12144,57.744 159.754275,51.34995 159.213735,41.2425 L167.7744,41.242905 Z" id="Path"></path>
                        <path d="M220.13523,6.42942 L220.13523,16.07103 L227.88279,16.07103 L227.88279,22.69359 L220.13523,22.69359 L220.13523,45.154035 C220.13523,48.64329 221.686515,50.269275 225.09225,50.269275 C226.012011,50.2532368 226.930285,50.1886469 227.843235,50.075775 L227.843235,56.65878 C226.312012,56.944888 224.755654,57.0744652 223.1982,57.04551 C214.9497,57.04551 211.732875,53.94735 211.732875,46.04598 L211.732875,22.69359 L205.809075,22.69359 L205.809075,16.07103 L211.732785,16.07103 L211.732785,6.42942 L220.13523,6.42942 Z" id="Path"></path>
                        <path d="M232.369785,36.444105 C232.369785,23.62527 239.91957,15.57009 251.69256,15.57009 C263.50506,15.57009 271.0197,23.62509 271.0197,36.444105 C271.0197,49.29813 263.544615,57.31812 251.69256,57.31812 C239.84469,57.31812 232.369785,49.298085 232.369785,36.444105 Z M262.49868,36.444105 C262.49868,27.650655 258.468885,22.460715 251.692515,22.460715 C244.916145,22.460715 240.89076,27.69021 240.89076,36.444105 C240.89076,45.2727 244.916145,50.42313 251.692515,50.42313 C258.468885,50.42313 262.49868,45.2727 262.49868,36.444105 L262.49868,36.444105 Z" id="Shape"></path>
                        <path d="M277.91451,16.07103 L285.890625,16.07103 L285.890625,23.00553 L286.084125,23.00553 C287.196417,18.5414778 291.286721,15.469162 295.88391,15.6447 C296.847648,15.641335 297.808727,15.7459984 298.74915,15.95673 L298.74915,23.77899 C297.532489,23.4072149 296.263303,23.2365208 294.99165,23.27364 C292.533067,23.1738995 290.153704,24.1537263 288.478312,25.9558469 C286.802919,27.7579675 285.99888,30.2023383 286.27731,32.64714 L286.27731,56.81268 L277.91451,56.81268 L277.91451,16.07103 Z" id="Path"></path>
                        <path d="M337.306635,44.846415 C336.181635,52.24239 328.97898,57.318075 319.763655,57.318075 C307.9116,57.318075 300.55518,49.37715 300.55518,36.637425 C300.55518,23.858145 307.951155,15.570045 319.412115,15.570045 C330.684075,15.570045 337.772475,23.313195 337.772475,35.666235 L337.772475,38.531475 L308.99709,38.531475 L308.99709,39.036825 C308.728428,42.0699673 309.775777,45.0723575 311.872725,47.2802847 C313.969672,49.4882119 316.914109,50.6888698 319.957065,50.57685 C324.015355,50.9570982 327.841529,48.6267195 329.365755,44.84637 L337.306635,44.846415 Z M309.036566,32.686785 L329.405265,32.686785 C329.55703,29.9612587 328.564919,27.2960239 326.66796,25.333162 C324.771001,23.3703 322.141189,22.2877818 319.412115,22.346415 C316.661453,22.33 314.018193,23.4130258 312.06985,25.3547696 C310.121506,27.2965134 309.029518,29.9360831 309.036566,32.686785 L309.036566,32.686785 Z" id="Shape"></path>
                    </g>
                </g>
            </g>
            <g id="_Group_4" transform="translate(159.2536, 37.1406)" fill="#FFFFFF" fill-rule="nonzero">
                <path d="M4.13514,21.7796962 C4.486725,24.3285412 6.97842,25.9479112 10.57311,25.9479112 C13.92174,25.9479112 16.37811,24.2186512 16.37811,21.8368462 C16.37811,19.7889862 14.81364,18.5608462 11.25846,17.7235762 L7.799985,16.8865762 C2.944035,15.7505962 0.72918,13.4060962 0.72918,9.46202616 C0.72918,4.67852616 4.6359,1.49702616 10.49823,1.49702616 C15.2948537,0.961980319 19.6211686,4.40612843 20.174985,9.20062116 L16.114455,9.20062116 C15.5603874,6.5868294 13.0910077,4.83741447 10.441395,5.18158116 C7.145505,5.18158116 4.95261,6.76360116 4.95261,9.18280116 C4.95261,11.0988112 6.367635,12.1974412 9.86571,13.0148212 L12.823245,13.7421112 C18.32958,15.0253312 20.601585,17.2577362 20.601585,21.2963062 C20.601585,26.4313012 16.62012,29.6503312 10.25685,29.6503312 C4.30227,29.6503312 0.298845,26.5807462 0,21.7798312 L4.13514,21.7796962 Z" id="Path"></path>
                <path d="M39.440835,15.3592762 C38.9139868,13.1880341 36.8811631,11.7264188 34.655175,11.9183512 C31.306545,11.9183512 29.258685,14.4847462 29.258685,18.8024062 C29.258685,23.1947212 31.324185,25.8182662 34.655175,25.8182662 C36.8622422,26.0739799 38.9141764,24.6457413 39.440835,22.4872312 L43.330005,22.4872312 C42.7951334,26.7541967 38.9563898,29.8170065 34.67718,29.3910412 C31.9346507,29.4776338 29.2937042,28.349435 27.4602542,26.3080076 C25.6268042,24.2665801 24.7877693,21.5200456 25.16742,18.8025412 C24.8068797,16.1051209 25.653948,13.3859522 27.4826264,11.3705116 C29.3113048,9.35507101 31.9355533,8.24839883 34.65522,8.34575616 C38.9691116,7.94840698 42.8151411,11.0579623 43.330005,15.3594112 L39.440835,15.3592762 Z" id="Path"></path>
                <path d="M47.29824,23.2694662 C47.29824,19.6219912 50.01408,17.5192312 54.83484,17.2203862 L60.323625,16.9039912 L60.323625,15.1549762 C60.323625,13.0148212 58.9086,11.8063462 56.17521,11.8063462 C53.942805,11.8063462 52.39593,12.6259312 51.95205,14.0585512 L48.080475,14.0585512 C48.489165,10.5780712 51.763095,8.34566616 56.359755,8.34566616 C61.43985,8.34566616 64.30509,10.8746662 64.30509,15.1549762 L64.30509,28.9999462 L60.455475,28.9999462 L60.455475,26.1523012 L60.13908,26.1523012 C58.8315987,28.2318697 56.5064714,29.4472607 54.05265,29.3338012 C52.3324625,29.5127293 50.6168602,28.9556241 49.3299711,27.8002122 C48.0430821,26.6448002 47.3050174,24.9989211 47.29824,23.2694662 L47.29824,23.2694662 Z M60.323625,21.5380012 L60.323625,19.8439312 L55.37538,20.1603262 C52.58484,20.3470762 51.319215,21.2963062 51.319215,23.0826712 C51.319215,24.9063862 52.901235,25.9676662 55.076715,25.9676662 C56.3645523,26.0980305 57.6501587,25.7001639 58.6392317,24.8651463 C59.6283048,24.0301287 60.2361522,22.8294609 60.323625,21.5380012 L60.323625,21.5380012 Z" id="Shape"></path>
                <path d="M70.56729,8.73671616 L74.416905,8.73671616 L74.416905,11.8436512 L74.71575,11.8436512 C75.5998828,9.63094837 77.8095259,8.24037552 80.18694,8.40052116 C80.7859109,8.39246842 81.3840272,8.44845131 81.9711,8.56751616 L81.9711,12.5140162 C81.2372079,12.3571989 80.4891443,12.2762086 79.738695,12.2723212 C78.4049891,12.1525638 77.0827249,12.6015768 76.0977311,13.5087154 C75.1127373,14.4158541 74.5566124,15.6967601 74.566395,17.0357962 L74.566395,28.9999012 L70.56729,28.9999012 L70.56729,8.73671616 Z" id="Path"></path>
                <path d="M86.16789,2.74478616 C86.104785,1.68497367 86.6946831,0.693923763 87.656367,0.24409162 C88.6180508,-0.205740523 89.756855,-0.023299232 90.5298865,0.704441737 C91.3029181,1.43218271 91.553699,2.55791298 91.1626764,3.5449723 C90.7716538,4.53203162 89.8179792,5.18061801 88.75629,5.18153616 C88.0861593,5.21570732 87.4310939,4.97499935 86.9425281,4.51505778 C86.4539623,4.05511621 86.1741909,3.41575793 86.16789,2.74478616 Z M86.76117,8.73671616 L90.747,8.73671616 L90.747,28.9999012 L86.76117,28.9999012 L86.76117,8.73671616 Z" id="Shape"></path>
                <path d="M110.465235,15.3592762 C109.938387,13.1880341 107.905563,11.7264188 105.679575,11.9183512 C102.330945,11.9183512 100.283085,14.4847462 100.283085,18.8024062 C100.283085,23.1947212 102.348585,25.8182662 105.679575,25.8182662 C107.886642,26.0739799 109.938576,24.6457413 110.465235,22.4872312 L114.354405,22.4872312 C113.819533,26.7541967 109.98079,29.8170065 105.70158,29.3910412 C102.959051,29.4776338 100.318104,28.349435 98.4846542,26.3080076 C96.6512042,24.2665801 95.8121693,21.5200456 96.19182,18.8025412 C95.8312797,16.1051209 96.678348,13.3859522 98.5070264,11.3705116 C100.335705,9.35507101 102.959953,8.24839883 105.67962,8.34575616 C109.993512,7.94840698 113.839541,11.0579623 114.354405,15.3594112 L110.465235,15.3592762 Z" id="Path"></path>
                <path d="M118.32264,23.2694662 C118.32264,19.6219912 121.03848,17.5192312 125.85924,17.2203862 L131.348025,16.9039912 L131.348025,15.1549762 C131.348025,13.0148212 129.933,11.8063462 127.19961,11.8063462 C124.967205,11.8063462 123.42033,12.6259312 122.97645,14.0585512 L119.104875,14.0585512 C119.513565,10.5780712 122.787495,8.34566616 127.384155,8.34566616 C132.46425,8.34566616 135.33165,10.8746662 135.33165,15.1549762 L135.33165,28.9999462 L131.47965,28.9999462 L131.47965,26.1523012 L131.163255,26.1523012 C129.855774,28.2318697 127.530646,29.4472607 125.076825,29.3338012 C123.356674,29.5126613 121.641133,28.9555253 120.354296,27.8001211 C119.067458,26.6447168 118.329424,24.9988776 118.32264,23.2694662 L118.32264,23.2694662 Z M131.34807,21.5380012 L131.34807,19.8439312 L126.39978,20.1603262 C123.60924,20.3470762 122.343615,21.2963062 122.343615,23.0826712 C122.343615,24.9063862 123.925635,25.9676662 126.101115,25.9676662 C127.38896,26.0980435 128.674578,25.7001828 129.663661,24.8651639 C130.652744,24.0301449 131.260598,22.8294696 131.34807,21.5380012 L131.34807,21.5380012 Z" id="Shape"></path>
                <path d="M159.9894,8.34562116 C164.54655,8.34562116 167.526,10.4659762 167.91714,14.0387512 L164.08071,14.0387512 C163.71171,12.5511862 162.256995,11.6020012 159.9894,11.6020012 C157.756995,11.6020012 156.0609,12.6610762 156.0609,14.2430962 C156.0609,15.4535962 157.08483,16.2162562 159.28209,16.7194012 L162.64809,17.4994312 C166.502115,18.3937162 168.308235,20.0504362 168.308235,23.0277712 C168.308235,26.8422412 164.753235,29.3910412 159.9147,29.3910412 C155.093895,29.3910412 151.951815,27.2135362 151.595865,23.6232112 L155.59929,23.6232112 C156.309309,25.3819742 158.130303,26.426802 160.006995,26.1522112 C162.49869,26.1522112 164.26971,25.0362112 164.26971,23.4166162 C164.26971,22.2081412 163.32048,21.4259062 161.290215,20.9425162 L157.756995,20.1229312 C153.90297,19.2110512 152.11881,17.4818362 152.11881,14.4671512 C152.11881,10.8746662 155.41029,8.34562116 159.9894,8.34562116 Z" id="Path"></path>
                <path d="M190.7775,28.9999012 L186.923475,28.9999012 L186.923475,25.7809162 L186.60708,25.7809162 C185.556457,28.1766003 183.090418,29.6309171 180.485505,29.3910412 C178.500619,29.5318163 176.558644,28.7667911 175.203078,27.310072 C173.847512,25.8533529 173.223982,23.8614342 173.506995,21.8917912 L173.506995,8.73671616 L177.51042,8.73671616 L177.51042,20.8502212 C177.51042,24.1241512 178.82892,25.6886212 181.768725,25.6886212 C183.149215,25.8196238 184.515142,25.3209153 185.486469,24.3312499 C186.457796,23.3415846 186.930872,21.9665695 186.774075,20.5887712 L186.774075,8.73671616 L190.7775,8.73671616 L190.7775,28.9999012 Z" id="Path"></path>
            </g>
        </g>
    </g>
</svg>